<?xml version="1.0" encoding="UTF-8" standalone="no"?>
<svg xmlns="http://www.w3.org/2000/svg" width="200" height="200" viewBox="0 0 200 200" fill="none">
  <rect width="200" height="200" fill="#34495e"/>
  <path d="M86.0711 68.9289C87.6331 67.3669 90.1327 67.3669 91.6947 68.9289L122.071 99.3051C123.633 100.867 123.633 103.367 122.071 104.929L91.6947 135.305C90.1327 136.867 87.6331 136.867 86.0711 135.305C84.5092 133.743 84.5092 131.243 86.0711 129.681L112.754 103L86.0711 76.3173C84.5092 74.7553 84.5092 72.2559 86.0711 70.6939V68.9289Z" fill="#ffffff"/>
  <path d="M106.929 68.9289C108.491 67.3669 110.991 67.3669 112.553 68.9289L142.929 99.3051C144.491 100.867 144.491 103.367 142.929 104.929L112.553 135.305C110.991 136.867 108.491 136.867 106.929 135.305C105.367 133.743 105.367 131.243 106.929 129.681L133.612 103L106.929 76.3173C105.367 74.7553 105.367 72.2559 106.929 70.6939V68.9289Z" fill="#ffffff"/>
  <path d="M67.4449 68.9289C65.883 67.3669 63.3834 67.3669 61.8214 68.9289L31.4453 99.3051C29.8833 100.867 29.8833 103.367 31.4453 104.929L61.8214 135.305C63.3834 136.867 65.883 136.867 67.4449 135.305C69.0069 133.743 69.0069 131.243 67.4449 129.681L40.7622 103L67.4449 76.3173C69.0069 74.7553 69.0069 72.2559 67.4449 70.6939V68.9289Z" fill="#ffffff"/>
  <path d="M46.5959 68.9289C45.034 67.3669 42.5344 67.3669 40.9724 68.9289L10.5962 99.3051C9.03427 100.867 9.03427 103.367 10.5962 104.929L40.9724 135.305C42.5344 136.867 45.034 136.867 46.5959 135.305C48.1579 133.743 48.1579 131.243 46.5959 129.681L19.9132 103L46.5959 76.3173C48.1579 74.7553 48.1579 72.2559 46.5959 70.6939V68.9289Z" fill="#ffffff"/>
  <text x="100" y="170" font-family="Arial" font-size="16" text-anchor="middle" fill="#ffffff">Imagem não disponível</text>
</svg>